<?xml version="1.0" encoding="utf-8"?>
<svg version="1.1" xmlns:xlink="http://www.w3.org/1999/xlink" width="12px" height="12px" viewBox="639 446.5  12 12" xmlns="http://www.w3.org/2000/svg">
  <path d="M 645 446.5  C 648.36 446.5  651 449.14  651 452.5  C 651 455.86  648.36 458.5  645 458.5  C 641.64 458.5  639 455.86  639 452.5  C 639 449.14  641.64 446.5  645 446.5  Z " fill-rule="nonzero" fill="#f0f0f0" stroke="none" />
  <path d="M 645 447  C 648.08 447  650.5 449.42  650.5 452.5  C 650.5 455.58  648.08 458  645 458  C 641.92 458  639.5 455.58  639.5 452.5  C 639.5 449.42  641.92 447  645 447  Z " stroke-width="1" stroke="#797979" fill="none" />
  <path d="M 645 455.5  C 643.32 455.5  642 454.18  642 452.5  C 642 450.82  643.32 449.5  645 449.5  C 646.68 449.5  648 450.82  648 452.5  C 648 454.18  646.68 455.5  645 455.5  " fill-rule="nonzero" fill="#797979" stroke="none" />
</svg>