<?xml version="1.0" encoding="utf-8"?>
<svg version="1.1" xmlns:xlink="http://www.w3.org/1999/xlink" width="12px" height="12px" viewBox="435 688.5  12 12" xmlns="http://www.w3.org/2000/svg">
  <path d="M 441 688.5  C 444.36 688.5  447 691.14  447 694.5  C 447 697.86  444.36 700.5  441 700.5  C 437.64 700.5  435 697.86  435 694.5  C 435 691.14  437.64 688.5  441 688.5  Z " fill-rule="nonzero" fill="#ffffff" stroke="none" />
  <path d="M 441 689  C 444.08 689  446.5 691.42  446.5 694.5  C 446.5 697.58  444.08 700  441 700  C 437.92 700  435.5 697.58  435.5 694.5  C 435.5 691.42  437.92 689  441 689  Z " stroke-width="1" stroke="#797979" fill="none" />
  <path d="M 441 697.5  C 439.32 697.5  438 696.18  438 694.5  C 438 692.82  439.32 691.5  441 691.5  C 442.68 691.5  444 692.82  444 694.5  C 444 696.18  442.68 697.5  441 697.5  " fill-rule="nonzero" fill="#797979" stroke="none" />
</svg>