<?xml version="1.0" encoding="utf-8"?>
<svg version="1.1" xmlns:xlink="http://www.w3.org/1999/xlink" width="12px" height="12px" viewBox="438 885.5  12 12" xmlns="http://www.w3.org/2000/svg">
  <path d="M 444 885.5  C 447.36 885.5  450 888.14  450 891.5  C 450 894.86  447.36 897.5  444 897.5  C 440.64 897.5  438 894.86  438 891.5  C 438 888.14  440.64 885.5  444 885.5  Z " fill-rule="nonzero" fill="#ffffff" stroke="none" />
  <path d="M 444 886  C 447.08 886  449.5 888.42  449.5 891.5  C 449.5 894.58  447.08 897  444 897  C 440.92 897  438.5 894.58  438.5 891.5  C 438.5 888.42  440.92 886  444 886  Z " stroke-width="1" stroke="#797979" fill="none" />
  <path d="M 444 894.5  C 442.32 894.5  441 893.18  441 891.5  C 441 889.82  442.32 888.5  444 888.5  C 445.68 888.5  447 889.82  447 891.5  C 447 893.18  445.68 894.5  444 894.5  " fill-rule="nonzero" fill="#797979" stroke="none" />
</svg>