<?xml version="1.0" encoding="utf-8"?>
<svg version="1.1" xmlns:xlink="http://www.w3.org/1999/xlink" width="12px" height="12px" viewBox="756 366.5  12 12" xmlns="http://www.w3.org/2000/svg">
  <path d="M 762 366.5  C 765.36 366.5  768 369.14  768 372.5  C 768 375.86  765.36 378.5  762 378.5  C 758.64 378.5  756 375.86  756 372.5  C 756 369.14  758.64 366.5  762 366.5  Z " fill-rule="nonzero" fill="#ffffff" stroke="none" />
  <path d="M 762 367  C 765.08 367  767.5 369.42  767.5 372.5  C 767.5 375.58  765.08 378  762 378  C 758.92 378  756.5 375.58  756.5 372.5  C 756.5 369.42  758.92 367  762 367  Z " stroke-width="1" stroke="#797979" fill="none" />
  <path d="M 762 375.5  C 760.32 375.5  759 374.18  759 372.5  C 759 370.82  760.32 369.5  762 369.5  C 763.68 369.5  765 370.82  765 372.5  C 765 374.18  763.68 375.5  762 375.5  " fill-rule="nonzero" fill="#797979" stroke="none" />
</svg>