<?xml version="1.0" encoding="utf-8"?>
<svg version="1.1" xmlns:xlink="http://www.w3.org/1999/xlink" width="12px" height="12px" viewBox="529 332.5  12 12" xmlns="http://www.w3.org/2000/svg">
  <path d="M 535 332.5  C 538.36 332.5  541 335.14  541 338.5  C 541 341.86  538.36 344.5  535 344.5  C 531.64 344.5  529 341.86  529 338.5  C 529 335.14  531.64 332.5  535 332.5  Z " fill-rule="nonzero" fill="#f0f0f0" stroke="none" />
  <path d="M 535 333  C 538.08 333  540.5 335.42  540.5 338.5  C 540.5 341.58  538.08 344  535 344  C 531.92 344  529.5 341.58  529.5 338.5  C 529.5 335.42  531.92 333  535 333  Z " stroke-width="1" stroke="#797979" fill="none" />
  <path d="M 535 341.5  C 533.32 341.5  532 340.18  532 338.5  C 532 336.82  533.32 335.5  535 335.5  C 536.68 335.5  538 336.82  538 338.5  C 538 340.18  536.68 341.5  535 341.5  " fill-rule="nonzero" fill="#797979" stroke="none" />
</svg>