<?xml version="1.0" encoding="utf-8"?>
<svg version="1.1" xmlns:xlink="http://www.w3.org/1999/xlink" width="12px" height="12px" viewBox="618 332.5  12 12" xmlns="http://www.w3.org/2000/svg">
  <path d="M 624 332.5  C 627.36 332.5  630 335.14  630 338.5  C 630 341.86  627.36 344.5  624 344.5  C 620.64 344.5  618 341.86  618 338.5  C 618 335.14  620.64 332.5  624 332.5  Z " fill-rule="nonzero" fill="#f0f0f0" stroke="none" />
  <path d="M 624 333  C 627.08 333  629.5 335.42  629.5 338.5  C 629.5 341.58  627.08 344  624 344  C 620.92 344  618.5 341.58  618.5 338.5  C 618.5 335.42  620.92 333  624 333  Z " stroke-width="1" stroke="#797979" fill="none" />
  <path d="M 624 341.5  C 622.32 341.5  621 340.18  621 338.5  C 621 336.82  622.32 335.5  624 335.5  C 625.68 335.5  627 336.82  627 338.5  C 627 340.18  625.68 341.5  624 341.5  " fill-rule="nonzero" fill="#797979" stroke="none" />
</svg>