<?xml version="1.0" encoding="utf-8"?>
<svg version="1.1" xmlns:xlink="http://www.w3.org/1999/xlink" width="12px" height="12px" viewBox="1545 312.5  12 12" xmlns="http://www.w3.org/2000/svg">
  <path d="M 1551 312.5  C 1554.36 312.5  1557 315.14  1557 318.5  C 1557 321.86  1554.36 324.5  1551 324.5  C 1547.64 324.5  1545 321.86  1545 318.5  C 1545 315.14  1547.64 312.5  1551 312.5  Z " fill-rule="nonzero" fill="#ffffff" stroke="none" />
  <path d="M 1551 313  C 1554.08 313  1556.5 315.42  1556.5 318.5  C 1556.5 321.58  1554.08 324  1551 324  C 1547.92 324  1545.5 321.58  1545.5 318.5  C 1545.5 315.42  1547.92 313  1551 313  Z " stroke-width="1" stroke="#797979" fill="none" />
  <path d="M 1551 321.5  C 1549.32 321.5  1548 320.18  1548 318.5  C 1548 316.82  1549.32 315.5  1551 315.5  C 1552.68 315.5  1554 316.82  1554 318.5  C 1554 320.18  1552.68 321.5  1551 321.5  " fill-rule="nonzero" fill="#797979" stroke="none" />
</svg>