<?xml version="1.0" encoding="utf-8"?>
<svg version="1.1" xmlns:xlink="http://www.w3.org/1999/xlink" width="12px" height="12px" viewBox="1628 312.5  12 12" xmlns="http://www.w3.org/2000/svg">
  <path d="M 1634 312.5  C 1637.36 312.5  1640 315.14  1640 318.5  C 1640 321.86  1637.36 324.5  1634 324.5  C 1630.64 324.5  1628 321.86  1628 318.5  C 1628 315.14  1630.64 312.5  1634 312.5  Z " fill-rule="nonzero" fill="#f0f0f0" stroke="none" />
  <path d="M 1634 313  C 1637.08 313  1639.5 315.42  1639.5 318.5  C 1639.5 321.58  1637.08 324  1634 324  C 1630.92 324  1628.5 321.58  1628.5 318.5  C 1628.5 315.42  1630.92 313  1634 313  Z " stroke-width="1" stroke="#797979" fill="none" />
  <path d="M 1634 321.5  C 1632.32 321.5  1631 320.18  1631 318.5  C 1631 316.82  1632.32 315.5  1634 315.5  C 1635.68 315.5  1637 316.82  1637 318.5  C 1637 320.18  1635.68 321.5  1634 321.5  " fill-rule="nonzero" fill="#797979" stroke="none" />
</svg>