<?xml version="1.0" encoding="utf-8"?>
<svg version="1.1" xmlns:xlink="http://www.w3.org/1999/xlink" width="402px" height="29px" xmlns="http://www.w3.org/2000/svg">
  <g transform="matrix(1 0 0 1 -457 -883 )">
    <path d="M 458 890  A 6 6 0 0 1 464 884 L 852 884  A 6 6 0 0 1 858 890 L 858 905  A 6 6 0 0 1 852 911 L 464 911  A 6 6 0 0 1 458 905 L 458 890  Z " fill-rule="nonzero" fill="#ffffff" stroke="none" />
    <path d="M 457.5 890  A 6.5 6.5 0 0 1 464 883.5 L 852 883.5  A 6.5 6.5 0 0 1 858.5 890 L 858.5 905  A 6.5 6.5 0 0 1 852 911.5 L 464 911.5  A 6.5 6.5 0 0 1 457.5 905 L 457.5 890  Z " stroke-width="1" stroke-dasharray="3,1" stroke="#797979" fill="none" stroke-dashoffset="0.5" />
  </g>
</svg>