<?xml version="1.0" encoding="utf-8"?>
<svg version="1.1" xmlns:xlink="http://www.w3.org/1999/xlink" width="12px" height="12px" viewBox="125 61.5  12 12" xmlns="http://www.w3.org/2000/svg">
  <path d="M 131 61.5  C 134.36 61.5  137 64.14  137 67.5  C 137 70.86  134.36 73.5  131 73.5  C 127.64 73.5  125 70.86  125 67.5  C 125 64.14  127.64 61.5  131 61.5  Z " fill-rule="nonzero" fill="#f0f0f0" stroke="none" />
  <path d="M 131 62  C 134.08 62  136.5 64.42  136.5 67.5  C 136.5 70.58  134.08 73  131 73  C 127.92 73  125.5 70.58  125.5 67.5  C 125.5 64.42  127.92 62  131 62  Z " stroke-width="1" stroke="#797979" fill="none" />
  <path d="M 131 70.5  C 129.32 70.5  128 69.18  128 67.5  C 128 65.82  129.32 64.5  131 64.5  C 132.68 64.5  134 65.82  134 67.5  C 134 69.18  132.68 70.5  131 70.5  " fill-rule="nonzero" fill="#797979" stroke="none" />
</svg>