<?xml version="1.0" encoding="utf-8"?>
<svg version="1.1" xmlns:xlink="http://www.w3.org/1999/xlink" width="12px" height="12px" viewBox="1043 443.5  12 12" xmlns="http://www.w3.org/2000/svg">
  <path d="M 1049 443.5  C 1052.36 443.5  1055 446.14  1055 449.5  C 1055 452.86  1052.36 455.5  1049 455.5  C 1045.64 455.5  1043 452.86  1043 449.5  C 1043 446.14  1045.64 443.5  1049 443.5  Z " fill-rule="nonzero" fill="#ffffff" stroke="none" />
  <path d="M 1049 444  C 1052.08 444  1054.5 446.42  1054.5 449.5  C 1054.5 452.58  1052.08 455  1049 455  C 1045.92 455  1043.5 452.58  1043.5 449.5  C 1043.5 446.42  1045.92 444  1049 444  Z " stroke-width="1" stroke="#797979" fill="none" />
  <path d="M 1049 452.5  C 1047.32 452.5  1046 451.18  1046 449.5  C 1046 447.82  1047.32 446.5  1049 446.5  C 1050.68 446.5  1052 447.82  1052 449.5  C 1052 451.18  1050.68 452.5  1049 452.5  " fill-rule="nonzero" fill="#797979" stroke="none" />
</svg>