<?xml version="1.0" encoding="utf-8"?>
<svg version="1.1" xmlns:xlink="http://www.w3.org/1999/xlink" width="12px" height="12px" viewBox="435 306.5  12 12" xmlns="http://www.w3.org/2000/svg">
  <path d="M 441 306.5  C 444.36 306.5  447 309.14  447 312.5  C 447 315.86  444.36 318.5  441 318.5  C 437.64 318.5  435 315.86  435 312.5  C 435 309.14  437.64 306.5  441 306.5  Z " fill-rule="nonzero" fill="#ffffff" stroke="none" />
  <path d="M 441 307  C 444.08 307  446.5 309.42  446.5 312.5  C 446.5 315.58  444.08 318  441 318  C 437.92 318  435.5 315.58  435.5 312.5  C 435.5 309.42  437.92 307  441 307  Z " stroke-width="1" stroke="#797979" fill="none" />
  <path d="M 441 315.5  C 439.32 315.5  438 314.18  438 312.5  C 438 310.82  439.32 309.5  441 309.5  C 442.68 309.5  444 310.82  444 312.5  C 444 314.18  442.68 315.5  441 315.5  " fill-rule="nonzero" fill="#797979" stroke="none" />
</svg>