<?xml version="1.0" encoding="utf-8"?>
<svg version="1.1" xmlns:xlink="http://www.w3.org/1999/xlink" width="12px" height="12px" viewBox="435 355.5  12 12" xmlns="http://www.w3.org/2000/svg">
  <path d="M 441 355.5  C 444.36 355.5  447 358.14  447 361.5  C 447 364.86  444.36 367.5  441 367.5  C 437.64 367.5  435 364.86  435 361.5  C 435 358.14  437.64 355.5  441 355.5  Z " fill-rule="nonzero" fill="#f0f0f0" stroke="none" />
  <path d="M 441 356  C 444.08 356  446.5 358.42  446.5 361.5  C 446.5 364.58  444.08 367  441 367  C 437.92 367  435.5 364.58  435.5 361.5  C 435.5 358.42  437.92 356  441 356  Z " stroke-width="1" stroke="#797979" fill="none" />
  <path d="M 441 364.5  C 439.32 364.5  438 363.18  438 361.5  C 438 359.82  439.32 358.5  441 358.5  C 442.68 358.5  444 359.82  444 361.5  C 444 363.18  442.68 364.5  441 364.5  " fill-rule="nonzero" fill="#797979" stroke="none" />
</svg>