<?xml version="1.0" encoding="utf-8"?>
<svg version="1.1" xmlns:xlink="http://www.w3.org/1999/xlink" width="12px" height="12px" viewBox="537 355.5  12 12" xmlns="http://www.w3.org/2000/svg">
  <path d="M 543 355.5  C 546.36 355.5  549 358.14  549 361.5  C 549 364.86  546.36 367.5  543 367.5  C 539.64 367.5  537 364.86  537 361.5  C 537 358.14  539.64 355.5  543 355.5  Z " fill-rule="nonzero" fill="#ffffff" stroke="none" />
  <path d="M 543 356  C 546.08 356  548.5 358.42  548.5 361.5  C 548.5 364.58  546.08 367  543 367  C 539.92 367  537.5 364.58  537.5 361.5  C 537.5 358.42  539.92 356  543 356  Z " stroke-width="1" stroke="#797979" fill="none" />
  <path d="M 543 364.5  C 541.32 364.5  540 363.18  540 361.5  C 540 359.82  541.32 358.5  543 358.5  C 544.68 358.5  546 359.82  546 361.5  C 546 363.18  544.68 364.5  543 364.5  " fill-rule="nonzero" fill="#797979" stroke="none" />
</svg>