<?xml version="1.0" encoding="utf-8"?>
<svg version="1.1" xmlns:xlink="http://www.w3.org/1999/xlink" width="12px" height="12px" viewBox="639 355.5  12 12" xmlns="http://www.w3.org/2000/svg">
  <path d="M 645 355.5  C 648.36 355.5  651 358.14  651 361.5  C 651 364.86  648.36 367.5  645 367.5  C 641.64 367.5  639 364.86  639 361.5  C 639 358.14  641.64 355.5  645 355.5  Z " fill-rule="nonzero" fill="#f0f0f0" stroke="none" />
  <path d="M 645 356  C 648.08 356  650.5 358.42  650.5 361.5  C 650.5 364.58  648.08 367  645 367  C 641.92 367  639.5 364.58  639.5 361.5  C 639.5 358.42  641.92 356  645 356  Z " stroke-width="1" stroke="#797979" fill="none" />
  <path d="M 645 364.5  C 643.32 364.5  642 363.18  642 361.5  C 642 359.82  643.32 358.5  645 358.5  C 646.68 358.5  648 359.82  648 361.5  C 648 363.18  646.68 364.5  645 364.5  " fill-rule="nonzero" fill="#797979" stroke="none" />
</svg>