<?xml version="1.0" encoding="utf-8"?>
<svg version="1.1" xmlns:xlink="http://www.w3.org/1999/xlink" width="12px" height="12px" viewBox="429 332.5  12 12" xmlns="http://www.w3.org/2000/svg">
  <path d="M 435 332.5  C 438.36 332.5  441 335.14  441 338.5  C 441 341.86  438.36 344.5  435 344.5  C 431.64 344.5  429 341.86  429 338.5  C 429 335.14  431.64 332.5  435 332.5  Z " fill-rule="nonzero" fill="#f0f0f0" stroke="none" />
  <path d="M 435 333  C 438.08 333  440.5 335.42  440.5 338.5  C 440.5 341.58  438.08 344  435 344  C 431.92 344  429.5 341.58  429.5 338.5  C 429.5 335.42  431.92 333  435 333  Z " stroke-width="1" stroke="#797979" fill="none" />
  <path d="M 435 341.5  C 433.32 341.5  432 340.18  432 338.5  C 432 336.82  433.32 335.5  435 335.5  C 436.68 335.5  438 336.82  438 338.5  C 438 340.18  436.68 341.5  435 341.5  " fill-rule="nonzero" fill="#797979" stroke="none" />
</svg>