<?xml version="1.0" encoding="utf-8"?>
<svg version="1.1" xmlns:xlink="http://www.w3.org/1999/xlink" width="12px" height="12px" viewBox="416 616.5  12 12" xmlns="http://www.w3.org/2000/svg">
  <path d="M 422 616.5  C 425.36 616.5  428 619.14  428 622.5  C 428 625.86  425.36 628.5  422 628.5  C 418.64 628.5  416 625.86  416 622.5  C 416 619.14  418.64 616.5  422 616.5  Z " fill-rule="nonzero" fill="#f0f0f0" stroke="none" />
  <path d="M 422 617  C 425.08 617  427.5 619.42  427.5 622.5  C 427.5 625.58  425.08 628  422 628  C 418.92 628  416.5 625.58  416.5 622.5  C 416.5 619.42  418.92 617  422 617  Z " stroke-width="1" stroke="#797979" fill="none" />
  <path d="M 422 625.5  C 420.32 625.5  419 624.18  419 622.5  C 419 620.82  420.32 619.5  422 619.5  C 423.68 619.5  425 620.82  425 622.5  C 425 624.18  423.68 625.5  422 625.5  " fill-rule="nonzero" fill="#797979" stroke="none" />
</svg>