<?xml version="1.0" encoding="utf-8"?>
<svg version="1.1" xmlns:xlink="http://www.w3.org/1999/xlink" width="12px" height="12px" viewBox="634 294.5  12 12" xmlns="http://www.w3.org/2000/svg">
  <path d="M 640 294.5  C 643.36 294.5  646 297.14  646 300.5  C 646 303.86  643.36 306.5  640 306.5  C 636.64 306.5  634 303.86  634 300.5  C 634 297.14  636.64 294.5  640 294.5  Z " fill-rule="nonzero" fill="#ffffff" stroke="none" />
  <path d="M 640 295  C 643.08 295  645.5 297.42  645.5 300.5  C 645.5 303.58  643.08 306  640 306  C 636.92 306  634.5 303.58  634.5 300.5  C 634.5 297.42  636.92 295  640 295  Z " stroke-width="1" stroke="#797979" fill="none" />
  <path d="M 640 303.5  C 638.32 303.5  637 302.18  637 300.5  C 637 298.82  638.32 297.5  640 297.5  C 641.68 297.5  643 298.82  643 300.5  C 643 302.18  641.68 303.5  640 303.5  " fill-rule="nonzero" fill="#797979" stroke="none" />
</svg>