<?xml version="1.0" encoding="utf-8"?>
<svg version="1.1" xmlns:xlink="http://www.w3.org/1999/xlink" width="12px" height="12px" viewBox="542 471.5  12 12" xmlns="http://www.w3.org/2000/svg">
  <path d="M 548 471.5  C 551.36 471.5  554 474.14  554 477.5  C 554 480.86  551.36 483.5  548 483.5  C 544.64 483.5  542 480.86  542 477.5  C 542 474.14  544.64 471.5  548 471.5  Z " fill-rule="nonzero" fill="#f0f0f0" stroke="none" />
  <path d="M 548 472  C 551.08 472  553.5 474.42  553.5 477.5  C 553.5 480.58  551.08 483  548 483  C 544.92 483  542.5 480.58  542.5 477.5  C 542.5 474.42  544.92 472  548 472  Z " stroke-width="1" stroke="#797979" fill="none" />
  <path d="M 548 480.5  C 546.32 480.5  545 479.18  545 477.5  C 545 475.82  546.32 474.5  548 474.5  C 549.68 474.5  551 475.82  551 477.5  C 551 479.18  549.68 480.5  548 480.5  " fill-rule="nonzero" fill="#797979" stroke="none" />
</svg>