<?xml version="1.0" encoding="utf-8"?>
<svg version="1.1" xmlns:xlink="http://www.w3.org/1999/xlink" width="12px" height="12px" viewBox="435 348.5  12 12" xmlns="http://www.w3.org/2000/svg">
  <path d="M 441 348.5  C 444.36 348.5  447 351.14  447 354.5  C 447 357.86  444.36 360.5  441 360.5  C 437.64 360.5  435 357.86  435 354.5  C 435 351.14  437.64 348.5  441 348.5  Z " fill-rule="nonzero" fill="#ffffff" stroke="none" />
  <path d="M 441 349  C 444.08 349  446.5 351.42  446.5 354.5  C 446.5 357.58  444.08 360  441 360  C 437.92 360  435.5 357.58  435.5 354.5  C 435.5 351.42  437.92 349  441 349  Z " stroke-width="1" stroke="#797979" fill="none" />
  <path d="M 441 357.5  C 439.32 357.5  438 356.18  438 354.5  C 438 352.82  439.32 351.5  441 351.5  C 442.68 351.5  444 352.82  444 354.5  C 444 356.18  442.68 357.5  441 357.5  " fill-rule="nonzero" fill="#797979" stroke="none" />
</svg>