<?xml version="1.0" encoding="utf-8"?>
<svg version="1.1" xmlns:xlink="http://www.w3.org/1999/xlink" width="12px" height="12px" viewBox="535 348.5  12 12" xmlns="http://www.w3.org/2000/svg">
  <path d="M 541 348.5  C 544.36 348.5  547 351.14  547 354.5  C 547 357.86  544.36 360.5  541 360.5  C 537.64 360.5  535 357.86  535 354.5  C 535 351.14  537.64 348.5  541 348.5  Z " fill-rule="nonzero" fill="#f0f0f0" stroke="none" />
  <path d="M 541 349  C 544.08 349  546.5 351.42  546.5 354.5  C 546.5 357.58  544.08 360  541 360  C 537.92 360  535.5 357.58  535.5 354.5  C 535.5 351.42  537.92 349  541 349  Z " stroke-width="1" stroke="#797979" fill="none" />
  <path d="M 541 357.5  C 539.32 357.5  538 356.18  538 354.5  C 538 352.82  539.32 351.5  541 351.5  C 542.68 351.5  544 352.82  544 354.5  C 544 356.18  542.68 357.5  541 357.5  " fill-rule="nonzero" fill="#797979" stroke="none" />
</svg>