<?xml version="1.0" encoding="utf-8"?>
<svg version="1.1" xmlns:xlink="http://www.w3.org/1999/xlink" width="12px" height="12px" viewBox="547 623.5  12 12" xmlns="http://www.w3.org/2000/svg">
  <path d="M 553 623.5  C 556.36 623.5  559 626.14  559 629.5  C 559 632.86  556.36 635.5  553 635.5  C 549.64 635.5  547 632.86  547 629.5  C 547 626.14  549.64 623.5  553 623.5  Z " fill-rule="nonzero" fill="#ffffff" stroke="none" />
  <path d="M 553 624  C 556.08 624  558.5 626.42  558.5 629.5  C 558.5 632.58  556.08 635  553 635  C 549.92 635  547.5 632.58  547.5 629.5  C 547.5 626.42  549.92 624  553 624  Z " stroke-width="1" stroke="#797979" fill="none" />
  <path d="M 553 632.5  C 551.32 632.5  550 631.18  550 629.5  C 550 627.82  551.32 626.5  553 626.5  C 554.68 626.5  556 627.82  556 629.5  C 556 631.18  554.68 632.5  553 632.5  " fill-rule="nonzero" fill="#797979" stroke="none" />
</svg>