<?xml version="1.0" encoding="utf-8"?>
<svg version="1.1" xmlns:xlink="http://www.w3.org/1999/xlink" width="12px" height="12px" viewBox="1566 434.5  12 12" xmlns="http://www.w3.org/2000/svg">
  <path d="M 1572 434.5  C 1575.36 434.5  1578 437.14  1578 440.5  C 1578 443.86  1575.36 446.5  1572 446.5  C 1568.64 446.5  1566 443.86  1566 440.5  C 1566 437.14  1568.64 434.5  1572 434.5  Z " fill-rule="nonzero" fill="#f0f0f0" stroke="none" />
  <path d="M 1572 435  C 1575.08 435  1577.5 437.42  1577.5 440.5  C 1577.5 443.58  1575.08 446  1572 446  C 1568.92 446  1566.5 443.58  1566.5 440.5  C 1566.5 437.42  1568.92 435  1572 435  Z " stroke-width="1" stroke="#797979" fill="none" />
  <path d="M 1572 443.5  C 1570.32 443.5  1569 442.18  1569 440.5  C 1569 438.82  1570.32 437.5  1572 437.5  C 1573.68 437.5  1575 438.82  1575 440.5  C 1575 442.18  1573.68 443.5  1572 443.5  " fill-rule="nonzero" fill="#797979" stroke="none" />
</svg>