<?xml version="1.0" encoding="utf-8"?>
<svg version="1.1" xmlns:xlink="http://www.w3.org/1999/xlink" width="12px" height="12px" viewBox="1673 434.5  12 12" xmlns="http://www.w3.org/2000/svg">
  <path d="M 1679 434.5  C 1682.36 434.5  1685 437.14  1685 440.5  C 1685 443.86  1682.36 446.5  1679 446.5  C 1675.64 446.5  1673 443.86  1673 440.5  C 1673 437.14  1675.64 434.5  1679 434.5  Z " fill-rule="nonzero" fill="#f0f0f0" stroke="none" />
  <path d="M 1679 435  C 1682.08 435  1684.5 437.42  1684.5 440.5  C 1684.5 443.58  1682.08 446  1679 446  C 1675.92 446  1673.5 443.58  1673.5 440.5  C 1673.5 437.42  1675.92 435  1679 435  Z " stroke-width="1" stroke="#797979" fill="none" />
  <path d="M 1679 443.5  C 1677.32 443.5  1676 442.18  1676 440.5  C 1676 438.82  1677.32 437.5  1679 437.5  C 1680.68 437.5  1682 438.82  1682 440.5  C 1682 442.18  1680.68 443.5  1679 443.5  " fill-rule="nonzero" fill="#797979" stroke="none" />
</svg>