<?xml version="1.0" encoding="utf-8"?>
<svg version="1.1" xmlns:xlink="http://www.w3.org/1999/xlink" width="12px" height="12px" viewBox="251 61.5  12 12" xmlns="http://www.w3.org/2000/svg">
  <path d="M 257 61.5  C 260.36 61.5  263 64.14  263 67.5  C 263 70.86  260.36 73.5  257 73.5  C 253.64 73.5  251 70.86  251 67.5  C 251 64.14  253.64 61.5  257 61.5  Z " fill-rule="nonzero" fill="#f0f0f0" stroke="none" />
  <path d="M 257 62  C 260.08 62  262.5 64.42  262.5 67.5  C 262.5 70.58  260.08 73  257 73  C 253.92 73  251.5 70.58  251.5 67.5  C 251.5 64.42  253.92 62  257 62  Z " stroke-width="1" stroke="#797979" fill="none" />
  <path d="M 257 70.5  C 255.32 70.5  254 69.18  254 67.5  C 254 65.82  255.32 64.5  257 64.5  C 258.68 64.5  260 65.82  260 67.5  C 260 69.18  258.68 70.5  257 70.5  " fill-rule="nonzero" fill="#797979" stroke="none" />
</svg>