<?xml version="1.0" encoding="utf-8"?>
<svg version="1.1" xmlns:xlink="http://www.w3.org/1999/xlink" width="12px" height="12px" viewBox="430 294.5  12 12" xmlns="http://www.w3.org/2000/svg">
  <path d="M 436 294.5  C 439.36 294.5  442 297.14  442 300.5  C 442 303.86  439.36 306.5  436 306.5  C 432.64 306.5  430 303.86  430 300.5  C 430 297.14  432.64 294.5  436 294.5  Z " fill-rule="nonzero" fill="#f0f0f0" stroke="none" />
  <path d="M 436 295  C 439.08 295  441.5 297.42  441.5 300.5  C 441.5 303.58  439.08 306  436 306  C 432.92 306  430.5 303.58  430.5 300.5  C 430.5 297.42  432.92 295  436 295  Z " stroke-width="1" stroke="#797979" fill="none" />
  <path d="M 436 303.5  C 434.32 303.5  433 302.18  433 300.5  C 433 298.82  434.32 297.5  436 297.5  C 437.68 297.5  439 298.82  439 300.5  C 439 302.18  437.68 303.5  436 303.5  " fill-rule="nonzero" fill="#797979" stroke="none" />
</svg>