<?xml version="1.0" encoding="utf-8"?>
<svg version="1.1" xmlns:xlink="http://www.w3.org/1999/xlink" width="12px" height="12px" viewBox="530 294.5  12 12" xmlns="http://www.w3.org/2000/svg">
  <path d="M 536 294.5  C 539.36 294.5  542 297.14  542 300.5  C 542 303.86  539.36 306.5  536 306.5  C 532.64 306.5  530 303.86  530 300.5  C 530 297.14  532.64 294.5  536 294.5  Z " fill-rule="nonzero" fill="#ffffff" stroke="none" />
  <path d="M 536 295  C 539.08 295  541.5 297.42  541.5 300.5  C 541.5 303.58  539.08 306  536 306  C 532.92 306  530.5 303.58  530.5 300.5  C 530.5 297.42  532.92 295  536 295  Z " stroke-width="1" stroke="#797979" fill="none" />
  <path d="M 536 303.5  C 534.32 303.5  533 302.18  533 300.5  C 533 298.82  534.32 297.5  536 297.5  C 537.68 297.5  539 298.82  539 300.5  C 539 302.18  537.68 303.5  536 303.5  " fill-rule="nonzero" fill="#797979" stroke="none" />
</svg>