<?xml version="1.0" encoding="utf-8"?>
<svg version="1.1" xmlns:xlink="http://www.w3.org/1999/xlink" width="12px" height="12px" viewBox="535 306.5  12 12" xmlns="http://www.w3.org/2000/svg">
  <path d="M 541 306.5  C 544.36 306.5  547 309.14  547 312.5  C 547 315.86  544.36 318.5  541 318.5  C 537.64 318.5  535 315.86  535 312.5  C 535 309.14  537.64 306.5  541 306.5  Z " fill-rule="nonzero" fill="#ffffff" stroke="none" />
  <path d="M 541 307  C 544.08 307  546.5 309.42  546.5 312.5  C 546.5 315.58  544.08 318  541 318  C 537.92 318  535.5 315.58  535.5 312.5  C 535.5 309.42  537.92 307  541 307  Z " stroke-width="1" stroke="#797979" fill="none" />
  <path d="M 541 315.5  C 539.32 315.5  538 314.18  538 312.5  C 538 310.82  539.32 309.5  541 309.5  C 542.68 309.5  544 310.82  544 312.5  C 544 314.18  542.68 315.5  541 315.5  " fill-rule="nonzero" fill="#797979" stroke="none" />
</svg>