<?xml version="1.0" encoding="utf-8"?>
<svg version="1.1" xmlns:xlink="http://www.w3.org/1999/xlink" width="12px" height="12px" viewBox="741 355.5  12 12" xmlns="http://www.w3.org/2000/svg">
  <path d="M 747 355.5  C 750.36 355.5  753 358.14  753 361.5  C 753 364.86  750.36 367.5  747 367.5  C 743.64 367.5  741 364.86  741 361.5  C 741 358.14  743.64 355.5  747 355.5  Z " fill-rule="nonzero" fill="#ffffff" stroke="none" />
  <path d="M 747 356  C 750.08 356  752.5 358.42  752.5 361.5  C 752.5 364.58  750.08 367  747 367  C 743.92 367  741.5 364.58  741.5 361.5  C 741.5 358.42  743.92 356  747 356  Z " stroke-width="1" stroke="#797979" fill="none" />
  <path d="M 747 364.5  C 745.32 364.5  744 363.18  744 361.5  C 744 359.82  745.32 358.5  747 358.5  C 748.68 358.5  750 359.82  750 361.5  C 750 363.18  748.68 364.5  747 364.5  " fill-rule="nonzero" fill="#797979" stroke="none" />
</svg>