<?xml version="1.0" encoding="utf-8"?>
<svg version="1.1" xmlns:xlink="http://www.w3.org/1999/xlink" width="12px" height="12px" viewBox="710 306.5  12 12" xmlns="http://www.w3.org/2000/svg">
  <path d="M 716 306.5  C 719.36 306.5  722 309.14  722 312.5  C 722 315.86  719.36 318.5  716 318.5  C 712.64 318.5  710 315.86  710 312.5  C 710 309.14  712.64 306.5  716 306.5  Z " fill-rule="nonzero" fill="#f0f0f0" stroke="none" />
  <path d="M 716 307  C 719.08 307  721.5 309.42  721.5 312.5  C 721.5 315.58  719.08 318  716 318  C 712.92 318  710.5 315.58  710.5 312.5  C 710.5 309.42  712.92 307  716 307  Z " stroke-width="1" stroke="#797979" fill="none" />
  <path d="M 716 315.5  C 714.32 315.5  713 314.18  713 312.5  C 713 310.82  714.32 309.5  716 309.5  C 717.68 309.5  719 310.82  719 312.5  C 719 314.18  717.68 315.5  716 315.5  " fill-rule="nonzero" fill="#797979" stroke="none" />
</svg>