<?xml version="1.0" encoding="utf-8"?>
<svg version="1.1" xmlns:xlink="http://www.w3.org/1999/xlink" width="12px" height="12px" viewBox="1420 443.5  12 12" xmlns="http://www.w3.org/2000/svg">
  <path d="M 1426 443.5  C 1429.36 443.5  1432 446.14  1432 449.5  C 1432 452.86  1429.36 455.5  1426 455.5  C 1422.64 455.5  1420 452.86  1420 449.5  C 1420 446.14  1422.64 443.5  1426 443.5  Z " fill-rule="nonzero" fill="#ffffff" stroke="none" />
  <path d="M 1426 444  C 1429.08 444  1431.5 446.42  1431.5 449.5  C 1431.5 452.58  1429.08 455  1426 455  C 1422.92 455  1420.5 452.58  1420.5 449.5  C 1420.5 446.42  1422.92 444  1426 444  Z " stroke-width="1" stroke="#797979" fill="none" />
  <path d="M 1426 452.5  C 1424.32 452.5  1423 451.18  1423 449.5  C 1423 447.82  1424.32 446.5  1426 446.5  C 1427.68 446.5  1429 447.82  1429 449.5  C 1429 451.18  1427.68 452.5  1426 452.5  " fill-rule="nonzero" fill="#797979" stroke="none" />
</svg>