<?xml version="1.0" encoding="utf-8"?>
<svg version="1.1" xmlns:xlink="http://www.w3.org/1999/xlink" width="12px" height="12px" viewBox="1527 443.5  12 12" xmlns="http://www.w3.org/2000/svg">
  <path d="M 1533 443.5  C 1536.36 443.5  1539 446.14  1539 449.5  C 1539 452.86  1536.36 455.5  1533 455.5  C 1529.64 455.5  1527 452.86  1527 449.5  C 1527 446.14  1529.64 443.5  1533 443.5  Z " fill-rule="nonzero" fill="#f0f0f0" stroke="none" />
  <path d="M 1533 444  C 1536.08 444  1538.5 446.42  1538.5 449.5  C 1538.5 452.58  1536.08 455  1533 455  C 1529.92 455  1527.5 452.58  1527.5 449.5  C 1527.5 446.42  1529.92 444  1533 444  Z " stroke-width="1" stroke="#797979" fill="none" />
  <path d="M 1533 452.5  C 1531.32 452.5  1530 451.18  1530 449.5  C 1530 447.82  1531.32 446.5  1533 446.5  C 1534.68 446.5  1536 447.82  1536 449.5  C 1536 451.18  1534.68 452.5  1533 452.5  " fill-rule="nonzero" fill="#797979" stroke="none" />
</svg>