<?xml version="1.0" encoding="utf-8"?>
<svg version="1.1" xmlns:xlink="http://www.w3.org/1999/xlink" width="12px" height="12px" viewBox="523 366.5  12 12" xmlns="http://www.w3.org/2000/svg">
  <path d="M 529 366.5  C 532.36 366.5  535 369.14  535 372.5  C 535 375.86  532.36 378.5  529 378.5  C 525.64 378.5  523 375.86  523 372.5  C 523 369.14  525.64 366.5  529 366.5  Z " fill-rule="nonzero" fill="#ffffff" stroke="none" />
  <path d="M 529 367  C 532.08 367  534.5 369.42  534.5 372.5  C 534.5 375.58  532.08 378  529 378  C 525.92 378  523.5 375.58  523.5 372.5  C 523.5 369.42  525.92 367  529 367  Z " stroke-width="1" stroke="#797979" fill="none" />
  <path d="M 529 375.5  C 527.32 375.5  526 374.18  526 372.5  C 526 370.82  527.32 369.5  529 369.5  C 530.68 369.5  532 370.82  532 372.5  C 532 374.18  530.68 375.5  529 375.5  " fill-rule="nonzero" fill="#797979" stroke="none" />
</svg>