<?xml version="1.0" encoding="utf-8"?>
<svg version="1.1" xmlns:xlink="http://www.w3.org/1999/xlink" width="12px" height="12px" viewBox="537 446.5  12 12" xmlns="http://www.w3.org/2000/svg">
  <path d="M 543 446.5  C 546.36 446.5  549 449.14  549 452.5  C 549 455.86  546.36 458.5  543 458.5  C 539.64 458.5  537 455.86  537 452.5  C 537 449.14  539.64 446.5  543 446.5  Z " fill-rule="nonzero" fill="#f0f0f0" stroke="none" />
  <path d="M 543 447  C 546.08 447  548.5 449.42  548.5 452.5  C 548.5 455.58  546.08 458  543 458  C 539.92 458  537.5 455.58  537.5 452.5  C 537.5 449.42  539.92 447  543 447  Z " stroke-width="1" stroke="#797979" fill="none" />
  <path d="M 543 455.5  C 541.32 455.5  540 454.18  540 452.5  C 540 450.82  541.32 449.5  543 449.5  C 544.68 449.5  546 450.82  546 452.5  C 546 454.18  544.68 455.5  543 455.5  " fill-rule="nonzero" fill="#797979" stroke="none" />
</svg>