<?xml version="1.0" encoding="utf-8"?>
<svg version="1.1" xmlns:xlink="http://www.w3.org/1999/xlink" width="12px" height="12px" viewBox="741 446.5  12 12" xmlns="http://www.w3.org/2000/svg">
  <path d="M 747 446.5  C 750.36 446.5  753 449.14  753 452.5  C 753 455.86  750.36 458.5  747 458.5  C 743.64 458.5  741 455.86  741 452.5  C 741 449.14  743.64 446.5  747 446.5  Z " fill-rule="nonzero" fill="#f0f0f0" stroke="none" />
  <path d="M 747 447  C 750.08 447  752.5 449.42  752.5 452.5  C 752.5 455.58  750.08 458  747 458  C 743.92 458  741.5 455.58  741.5 452.5  C 741.5 449.42  743.92 447  747 447  Z " stroke-width="1" stroke="#797979" fill="none" />
  <path d="M 747 455.5  C 745.32 455.5  744 454.18  744 452.5  C 744 450.82  745.32 449.5  747 449.5  C 748.68 449.5  750 450.82  750 452.5  C 750 454.18  748.68 455.5  747 455.5  " fill-rule="nonzero" fill="#797979" stroke="none" />
</svg>