<?xml version="1.0" encoding="utf-8"?>
<svg version="1.1" xmlns:xlink="http://www.w3.org/1999/xlink" width="12px" height="12px" viewBox="561 688.5  12 12" xmlns="http://www.w3.org/2000/svg">
  <path d="M 567 688.5  C 570.36 688.5  573 691.14  573 694.5  C 573 697.86  570.36 700.5  567 700.5  C 563.64 700.5  561 697.86  561 694.5  C 561 691.14  563.64 688.5  567 688.5  Z " fill-rule="nonzero" fill="#f0f0f0" stroke="none" />
  <path d="M 567 689  C 570.08 689  572.5 691.42  572.5 694.5  C 572.5 697.58  570.08 700  567 700  C 563.92 700  561.5 697.58  561.5 694.5  C 561.5 691.42  563.92 689  567 689  Z " stroke-width="1" stroke="#797979" fill="none" />
  <path d="M 567 697.5  C 565.32 697.5  564 696.18  564 694.5  C 564 692.82  565.32 691.5  567 691.5  C 568.68 691.5  570 692.82  570 694.5  C 570 696.18  568.68 697.5  567 697.5  " fill-rule="nonzero" fill="#797979" stroke="none" />
</svg>