<?xml version="1.0" encoding="utf-8"?>
<svg version="1.1" xmlns:xlink="http://www.w3.org/1999/xlink" width="12px" height="12px" viewBox="561 923.5  12 12" xmlns="http://www.w3.org/2000/svg">
  <path d="M 567 923.5  C 570.36 923.5  573 926.14  573 929.5  C 573 932.86  570.36 935.5  567 935.5  C 563.64 935.5  561 932.86  561 929.5  C 561 926.14  563.64 923.5  567 923.5  Z " fill-rule="nonzero" fill="#f0f0f0" stroke="none" />
  <path d="M 567 924  C 570.08 924  572.5 926.42  572.5 929.5  C 572.5 932.58  570.08 935  567 935  C 563.92 935  561.5 932.58  561.5 929.5  C 561.5 926.42  563.92 924  567 924  Z " stroke-width="1" stroke="#797979" fill="none" />
  <path d="M 567 932.5  C 565.32 932.5  564 931.18  564 929.5  C 564 927.82  565.32 926.5  567 926.5  C 568.68 926.5  570 927.82  570 929.5  C 570 931.18  568.68 932.5  567 932.5  " fill-rule="nonzero" fill="#797979" stroke="none" />
</svg>