<?xml version="1.0" encoding="utf-8"?>
<svg version="1.1" xmlns:xlink="http://www.w3.org/1999/xlink" width="12px" height="12px" viewBox="639 348.5  12 12" xmlns="http://www.w3.org/2000/svg">
  <path d="M 645 348.5  C 648.36 348.5  651 351.14  651 354.5  C 651 357.86  648.36 360.5  645 360.5  C 641.64 360.5  639 357.86  639 354.5  C 639 351.14  641.64 348.5  645 348.5  Z " fill-rule="nonzero" fill="#f0f0f0" stroke="none" />
  <path d="M 645 349  C 648.08 349  650.5 351.42  650.5 354.5  C 650.5 357.58  648.08 360  645 360  C 641.92 360  639.5 357.58  639.5 354.5  C 639.5 351.42  641.92 349  645 349  Z " stroke-width="1" stroke="#797979" fill="none" />
  <path d="M 645 357.5  C 643.32 357.5  642 356.18  642 354.5  C 642 352.82  643.32 351.5  645 351.5  C 646.68 351.5  648 352.82  648 354.5  C 648 356.18  646.68 357.5  645 357.5  " fill-rule="nonzero" fill="#797979" stroke="none" />
</svg>