<?xml version="1.0" encoding="utf-8"?>
<svg version="1.1" xmlns:xlink="http://www.w3.org/1999/xlink" width="12px" height="12px" viewBox="421 623.5  12 12" xmlns="http://www.w3.org/2000/svg">
  <path d="M 427 623.5  C 430.36 623.5  433 626.14  433 629.5  C 433 632.86  430.36 635.5  427 635.5  C 423.64 635.5  421 632.86  421 629.5  C 421 626.14  423.64 623.5  427 623.5  Z " fill-rule="nonzero" fill="#ffffff" stroke="none" />
  <path d="M 427 624  C 430.08 624  432.5 626.42  432.5 629.5  C 432.5 632.58  430.08 635  427 635  C 423.92 635  421.5 632.58  421.5 629.5  C 421.5 626.42  423.92 624  427 624  Z " stroke-width="1" stroke="#797979" fill="none" />
  <path d="M 427 632.5  C 425.32 632.5  424 631.18  424 629.5  C 424 627.82  425.32 626.5  427 626.5  C 428.68 626.5  430 627.82  430 629.5  C 430 631.18  428.68 632.5  427 632.5  " fill-rule="nonzero" fill="#797979" stroke="none" />
</svg>